<?xml version="1.0" encoding="UTF-8"?>
<svg width="512" height="512" viewBox="0 0 512 512" fill="none" xmlns="http://www.w3.org/2000/svg">
  <!-- Background Circle -->
  <circle cx="256" cy="256" r="256" fill="#2563eb"/>
  
  <!-- Vehicle Icon -->
  <g transform="translate(256, 256) scale(1.5)">
    <!-- Car Body -->
    <rect x="-64" y="-20" width="128" height="40" rx="20" fill="white"/>
    
    <!-- Car Windows -->
    <rect x="-48" y="-35" width="32" height="15" rx="7" fill="white"/>
    <rect x="-8" y="-35" width="32" height="15" rx="7" fill="white"/>
    <rect x="16" y="-35" width="32" height="15" rx="7" fill="white"/>
    
    <!-- Wheels -->
    <circle cx="-40" cy="20" r="12" fill="white"/>
    <circle cx="40" cy="20" r="12" fill="white"/>
    
    <!-- Wheel Details -->
    <circle cx="-40" cy="20" r="6" fill="#2563eb"/>
    <circle cx="40" cy="20" r="6" fill="#2563eb"/>
    
    <!-- GPS Signal Lines -->
    <g stroke="white" stroke-width="3" fill="none">
      <path d="M0,-80 Q-20,-60 -40,-40" opacity="0.7"/>
      <path d="M0,-80 Q0,-60 0,-40" opacity="0.9"/>
      <path d="M0,-80 Q20,-60 40,-40" opacity="0.7"/>
    </g>
    
    <!-- GPS Dot -->
    <circle cx="0" cy="-80" r="4" fill="white"/>
  </g>
  
  <!-- Location Pin -->
  <g transform="translate(380, 132) scale(0.8)">
    <path d="M24 2C13.5 2 5 10.5 5 21c0 15.25 19 37 19 37s19-21.75 19-37c0-10.5-8.5-19-19-19z" fill="white"/>
    <circle cx="24" cy="21" r="7" fill="#2563eb"/>
  </g>
</svg>