<?xml version="1.0" encoding="UTF-8"?>
<svg width="512" height="512" viewBox="0 0 512 512" fill="none" xmlns="http://www.w3.org/2000/svg">
  <path d="M256 0C114.6 0 0 114.6 0 256s114.6 256 256 256 256-114.6 256-256S397.4 0 256 0zm0 448c-106.1 0-192-85.9-192-192S149.9 64 256 64s192 85.9 192 192-85.9 192-192 192z" fill="#2563eb"/>
  <g transform="translate(256, 256) scale(1.5)">
    <rect x="-64" y="-20" width="128" height="40" rx="20" fill="#2563eb"/>
    <rect x="-48" y="-35" width="32" height="15" rx="7" fill="#2563eb"/>
    <rect x="-8" y="-35" width="32" height="15" rx="7" fill="#2563eb"/>
    <rect x="16" y="-35" width="32" height="15" rx="7" fill="#2563eb"/>
    <circle cx="-40" cy="20" r="12" fill="#2563eb"/>
    <circle cx="40" cy="20" r="12" fill="#2563eb"/>
    <circle cx="0" cy="-80" r="4" fill="#2563eb"/>
    <path d="M0,-80 Q-20,-60 -40,-40 M0,-80 Q0,-60 0,-40 M0,-80 Q20,-60 40,-40" stroke="#2563eb" stroke-width="3" fill="none"/>
  </g>
</svg>